<?xml version="1.0" encoding="utf-8"?>
<!-- Generator: Adobe Illustrator 17.1.0, SVG Export Plug-In . SVG Version: 6.00 Build 0)  -->
<!DOCTYPE svg PUBLIC "-//W3C//DTD SVG 1.1//EN" "http://www.w3.org/Graphics/SVG/1.1/DTD/svg11.dtd">
<svg version="1.1" id="Layer_1" xmlns="http://www.w3.org/2000/svg" xmlns:xlink="http://www.w3.org/1999/xlink" x="0px" y="0px"
	 viewBox="0 0 309.6 341.9" enable-background="new 0 0 309.6 341.9" xml:space="preserve">
<path fill="#C4C5CD" d="M300,88.7h-42.8V66.1c0-36.4-29.6-66.1-66.1-66.1c-5.3,0-10.6,0.6-15.8,1.9c-2.5,0.6-4.6,2.2-5.9,4.4
	c-1.3,2.2-1.7,4.8-1.1,7.3c1.1,4.3,4.9,7.3,9.3,7.3c0.8,0,1.5-0.1,2.3-0.3c3.7-0.9,7.4-1.4,11.2-1.4c25.8,0,46.8,21,46.8,46.8v22.6
	h-53.3V66.1c0-36.4-29.6-66.1-66.1-66.1C82.1,0,52.4,29.6,52.4,66.1v22.6H9.6C4.3,88.7,0,93,0,98.3v233.9c0,5.3,4.3,9.6,9.6,9.6H300
	c5.3,0,9.6-4.3,9.6-9.6V98.3C309.6,93,305.3,88.7,300,88.7z M62,124.1c5.3,0,9.6-4.3,9.6-9.6V108h93.7v6.5c0,5.3,4.3,9.6,9.6,9.6
	c5.3,0,9.6-4.3,9.6-9.6V108h33.2v214.6H19.3V108h33.2v6.5C52.4,119.8,56.7,124.1,62,124.1z M144.3,66.1c0-7,1.5-13.7,4.4-19.9
	c2.3-4.8,0.2-10.6-4.6-12.8c-1.3-0.6-2.7-0.9-4.1-0.9c-3.7,0-7.1,2.2-8.7,5.5c-4.2,8.8-6.3,18.3-6.3,28.1v22.6H71.7V66.1
	c0-25.8,21-46.8,46.8-46.8c25.8,0,46.8,21,46.8,46.8v22.6h-21.1V66.1z M263.7,164.6c-5.3,0-9.6,4.3-9.6,9.6v148.4h-17V108h17v38.8
	c0,5.3,4.3,9.6,9.6,9.6s9.6-4.3,9.6-9.6V108h17v214.6h-17V174.2C273.3,168.9,269,164.6,263.7,164.6z"/>
</svg>
