<?xml version="1.0" encoding="utf-8"?>
<!-- Generator: Adobe Illustrator 17.1.0, SVG Export Plug-In . SVG Version: 6.00 Build 0)  -->
<!DOCTYPE svg PUBLIC "-//W3C//DTD SVG 1.1//EN" "http://www.w3.org/Graphics/SVG/1.1/DTD/svg11.dtd">
<svg version="1.1" id="Layer_1" xmlns="http://www.w3.org/2000/svg" xmlns:xlink="http://www.w3.org/1999/xlink" x="0px" y="0px"
	 viewBox="0 0 293.1 341.3" enable-background="new 0 0 293.1 341.3" xml:space="preserve">
<g>
	<g>
		<path fill="#FF7F27" d="M285.1,116.5L176.7,8c-6-4-14.1-8-22.1-8H82.3C54.2,0,32.1,22.1,32.1,50.2v111.3h0v6.5c0,5.5,4.5,10,10,10
			s10-4.5,10-10v-6.5h0V50.2c0-16.1,14.1-30.1,30.1-30.1h70.3v70.3c0,28.1,22.1,50.2,50.2,50.2H273v150.6
			c0,16.1-14.1,30.1-30.1,30.1H82.3c-16.1,0-30.1-14.1-30.1-30.1V253h0v-5c0-5.5-4.5-10-10-10s-10,4.5-10,10v5h0v38.2
			c0,28.1,22.1,50.2,50.2,50.2h160.6c28.1,0,50.2-22.1,50.2-50.2V138.5C293.1,130.5,291.1,122.5,285.1,116.5z M202.8,120.5
			c-16.1,0-30.1-14.1-30.1-30.1V32.1l88.4,88.4H202.8z"/>
		<path fill="#FF7F27" d="M82,246.6c-4.2,3.7-4.5,10-0.8,14.2c2,2.2,4.7,3.3,7.5,3.3c2.3,0,4.7-0.8,6.7-2.5l52-46.3
			c2.2-1.8,3.3-4.7,3.3-7.5c0-2.8-1.2-5.5-3.3-7.5l-52-46.3c-4.2-3.7-10.5-3.3-14.2,0.8c-3.7,4.2-3.3,10.5,0.8,14.2l32.7,29H10
			c-5.5,0-10,4.5-10,10c0,5.5,4.5,10,10,10h104.1L82,246.6z"/>
	</g>
</g>
</svg>
