<?xml version="1.0" encoding="utf-8"?>
<!-- Generator: Adobe Illustrator 17.1.0, SVG Export Plug-In . SVG Version: 6.00 Build 0)  -->
<!DOCTYPE svg PUBLIC "-//W3C//DTD SVG 1.1//EN" "http://www.w3.org/Graphics/SVG/1.1/DTD/svg11.dtd">
<svg version="1.1" id="Layer_1" xmlns="http://www.w3.org/2000/svg" xmlns:xlink="http://www.w3.org/1999/xlink" x="0px" y="0px"
	 viewBox="0 0 261 341.3" enable-background="new 0 0 261 341.3" xml:space="preserve">
<g>
	<g>
		<path fill="#C4C5CD" d="M253,116.5L144.6,8c-6-4-14.1-8-22.1-8H50.2C22.1,0,0,22.1,0,50.2v241c0,28.1,22.1,50.2,50.2,50.2h160.6
			c28.1,0,50.2-22.1,50.2-50.2V138.5C261,130.5,259,122.5,253,116.5L253,116.5z M140.6,32.1l88.4,88.4h-58.2
			c-16.1,0-30.1-14.1-30.1-30.1V32.1z M210.8,321.3H50.2c-16.1,0-30.1-14.1-30.1-30.1v-241c0-16.1,14.1-30.1,30.1-30.1h70.3v70.3
			c0,28.1,22.1,50.2,50.2,50.2h70.3v150.6C240.9,307.2,226.9,321.3,210.8,321.3L210.8,321.3z M210.8,321.3"/>
		<path fill="#C4C5CD" d="M190.8,271.1H70.3c-6,0-10,4-10,10c0,6,4,10,10,10h120.5c6,0,10-4,10-10
			C200.8,275.1,196.8,271.1,190.8,271.1L190.8,271.1z M190.8,271.1"/>
		<path fill="#C4C5CD" d="M190.8,220.9H70.3c-6,0-10,4-10,10c0,6,4,10,10,10h120.5c6,0,10-4,10-10
			C200.8,224.9,196.8,220.9,190.8,220.9L190.8,220.9z M190.8,220.9"/>
		<path fill="#C4C5CD" d="M190.8,170.7H70.3c-6,0-10,4-10,10c0,6,4,10,10,10h120.5c6,0,10-4,10-10
			C200.8,174.7,196.8,170.7,190.8,170.7L190.8,170.7z M190.8,170.7"/>
	</g>
</g>
</svg>
