<?xml version="1.0" encoding="utf-8"?>
<!-- Generator: Adobe Illustrator 17.1.0, SVG Export Plug-In . SVG Version: 6.00 Build 0)  -->
<!DOCTYPE svg PUBLIC "-//W3C//DTD SVG 1.1//EN" "http://www.w3.org/Graphics/SVG/1.1/DTD/svg11.dtd">
<svg version="1.1" id="Layer_1" xmlns="http://www.w3.org/2000/svg" xmlns:xlink="http://www.w3.org/1999/xlink" x="0px" y="0px"
	 viewBox="0 0 391.5 341.8" enable-background="new 0 0 391.5 341.8" xml:space="preserve">
<g>
	<g>
		<path fill="#C4C5CD" d="M278.2,186.2H225c-14.6,0-26.4,11.8-26.4,26.4v40.8c0,14.6,11.8,26.4,26.4,26.4h53.2
			c14.6,0,26.4-11.8,26.4-26.4v-40.8C304.6,198,292.7,186.2,278.2,186.2L278.2,186.2z M285.4,253.4c0,4-3.3,7.2-7.2,7.2H225
			c-4,0-7.2-3.3-7.2-7.2v-40.8c0-4,3.3-7.2,7.2-7.2h53.2c4,0,7.2,3.3,7.2,7.2V253.4z M285.4,253.4"/>
		<path fill="#C4C5CD" d="M391.5,112c0-1.7-0.4-3.3-1.3-4.7L332,4.9c-1.7-3-4.9-4.9-8.3-4.9H67.8c-3.4,0-6.6,1.8-8.3,4.9L1.3,107.3
			c-0.8,1.4-1.3,3-1.3,4.7c0,23,13.8,42.6,33.6,51.4v168.9c0,5.3,4.3,9.6,9.6,9.6h305c5.3,0,9.6-4.3,9.6-9.6V164.6
			c0-0.4,0-0.7-0.1-1C377.6,154.8,391.5,135,391.5,112L391.5,112z M73.4,19.3h244.7l45.5,80.1H27.9L73.4,19.3z M278.6,118.5
			c-3,17.3-18.2,30.4-36.3,30.4S209,135.8,206,118.5H278.6z M185.6,118.5c-3,17.3-18.2,30.4-36.3,30.4s-33.3-13.1-36.4-30.4H185.6z
			 M19.8,118.5h72.7c-3,17.3-18.2,30.4-36.4,30.4C38,149,22.9,135.8,19.8,118.5L19.8,118.5z M161.3,322.6h-55.2V219
			c0-7.5,6.1-13.7,13.7-13.7h27.9c7.5,0,13.7,6.1,13.7,13.7L161.3,322.6L161.3,322.6z M338.6,322.6H180.5V219
			c0-18.1-14.7-32.9-32.9-32.9h-27.9c-18.1,0-32.9,14.7-32.9,32.9v103.7h-34V168.1c1.1,0.1,2.2,0.1,3.4,0.1
			c19.4,0,36.5-9.8,46.6-24.8c10.1,15,27.2,24.8,46.6,24.8c19.4,0,36.4-9.8,46.6-24.8c10.1,15,27.2,24.8,46.5,24.8
			c19.4,0,36.4-9.8,46.5-24.8c10.1,15,27.2,24.8,46.6,24.8c1.1,0,2.2-0.1,3.3-0.1V322.6z M335.4,149c-18.2,0-33.3-13.1-36.3-30.4
			h72.7C368.6,135.8,353.5,149,335.4,149L335.4,149z M335.4,149"/>
	</g>
</g>
</svg>
